<svg version="1.1" id="Layer_1" xmlns="http://www.w3.org/2000/svg" xmlns:xlink="http://www.w3.org/1999/xlink" x="0px" y="0px"
	 width="100%" viewBox="0 0 696 686" enable-background="new 0 0 696 686" xml:space="preserve">
<path fill="#052A41" opacity="1.000000" stroke="none" 
	d="
M33.000000,1.000000 
	C254.287247,1.000000 475.574493,1.000000 696.930908,1.000000 
	C696.930908,229.572952 696.930908,458.145935 696.930908,687.000000 
	C475.973206,687.000000 254.946320,687.000000 33.459663,686.531372 
	C32.999813,669.486084 33.099003,652.908691 32.955219,636.333313 
	C32.889240,628.727295 32.182659,621.127563 32.081551,613.520752 
	C32.022297,609.062439 33.132561,604.905457 38.084305,603.418213 
	C40.318104,624.705017 50.536720,640.032288 69.379517,649.453857 
	C80.126465,654.827393 91.756996,653.979858 103.202606,653.993530 
	C151.701233,654.051453 200.200043,653.934631 248.698715,653.974670 
	C257.794678,653.982239 258.469574,653.587402 258.478424,644.577637 
	C258.513641,608.744690 258.515259,572.911743 258.517609,537.078796 
	C258.518219,527.892090 258.182831,527.576050 248.875076,527.576904 
	C184.375732,527.582642 119.876389,527.590576 55.377048,527.597717 
	C52.543743,527.598022 49.710239,527.575684 46.877167,527.601318 
	C38.780716,527.674438 38.296059,528.117310 38.281830,536.038879 
	C38.250996,553.205383 38.284100,570.372070 38.245655,587.538513 
	C38.239334,590.360596 38.002018,593.182129 37.508362,595.955078 
	C32.577297,595.179810 32.010536,591.827087 32.011017,588.094727 
	C32.014038,564.655396 31.982252,541.215942 32.029755,517.776672 
	C32.053940,505.843170 32.026581,493.903442 32.425697,481.980011 
	C32.564816,477.823944 32.733845,473.137024 37.731636,471.345978 
	C38.541378,473.162109 39.256588,474.622284 40.203968,476.379974 
	C42.652058,477.123505 44.867672,477.957550 47.083946,477.959290 
	C123.677773,478.019196 200.271652,477.998688 276.865540,477.993591 
	C339.639191,477.989410 402.412842,478.013916 465.186310,477.904907 
	C467.793488,477.900391 470.398468,476.667969 473.179810,475.947815 
	C473.355164,475.888000 473.717407,475.810455 473.952881,475.777710 
	C474.505554,475.179199 474.822754,474.613464 475.130310,473.602539 
	C475.176117,470.790588 475.231567,468.423828 475.551697,465.803406 
	C476.201050,463.804504 476.918274,462.059875 476.921509,460.313934 
	C476.990784,422.857361 477.006439,385.400543 476.911957,347.944092 
	C476.906921,345.942993 475.843414,343.944611 475.241425,341.556396 
	C475.227783,340.129730 475.245361,339.091553 475.530334,337.801422 
	C476.189209,335.972137 476.918640,334.395660 476.922272,332.817474 
	C476.992676,302.337585 477.009521,271.857391 476.901764,241.377762 
	C476.895386,239.573166 475.746704,237.772598 474.966278,235.754913 
	C474.494110,235.096725 474.185242,234.653763 473.770691,233.843414 
	C471.832001,232.668076 470.009247,231.187820 468.164459,231.159882 
	C454.886810,230.958817 441.603912,230.980255 428.325104,231.137497 
	C426.540771,231.158615 424.770111,232.335220 422.544861,233.011047 
	C419.401306,233.018631 416.705994,232.991928 413.782532,232.665314 
	C412.839935,231.986511 412.128174,231.283203 411.410736,231.277390 
	C400.694824,231.190582 389.975891,231.087555 379.264404,231.310928 
	C377.860474,231.340210 376.493744,233.153976 375.073303,234.106537 
	C375.036804,234.071823 375.130463,234.108749 374.788330,234.249710 
	C373.637848,237.112213 372.142975,239.829559 372.126312,242.555939 
	C371.940155,273.039459 371.982025,303.524323 371.600159,333.971008 
	C366.804260,334.288605 362.372467,334.921356 357.936676,334.950684 
	C340.115662,335.068634 322.293091,335.051331 304.471802,334.955200 
	C301.030304,334.936615 297.052948,335.264435 294.341339,333.684418 
	C292.528870,332.628265 292.902863,328.271637 291.561035,325.790833 
	C290.720856,324.237549 288.619415,322.843842 286.872742,322.520905 
	C285.980469,322.355927 283.814789,324.582794 283.607819,325.939575 
	C282.297455,334.529266 281.953003,334.988281 273.013763,334.993347 
	C245.531509,335.008972 218.049255,335.002808 190.567001,334.997681 
	C183.904877,334.996460 177.241348,335.043121 170.581131,334.921692 
	C166.510468,334.847504 163.843430,333.200043 162.780853,328.731567 
	C162.283691,326.640930 160.121948,323.938934 158.196960,323.414581 
	C154.696060,322.460968 154.007904,325.824127 153.628540,328.508789 
	C152.938980,333.388672 150.201248,335.138428 145.371796,335.059387 
	C133.382797,334.863098 121.388359,335.000580 109.396103,334.999451 
	C86.577515,334.997314 63.758717,335.047882 40.940464,334.958557 
	C32.658928,334.926117 31.371464,333.313812 32.489445,325.483734 
	C32.606155,324.666351 32.594810,323.824036 32.575096,322.994873 
	C32.393593,315.360962 32.056503,307.727875 32.031479,300.093658 
	C31.957232,277.441864 31.963993,254.789566 32.035275,232.137741 
	C32.050903,227.171036 32.361782,222.197952 32.727234,217.241867 
	C33.035725,213.058228 35.083282,211.112000 39.661522,211.531067 
	C45.279408,212.045319 50.959877,211.975876 56.613506,211.982864 
	C86.094421,212.019257 115.575417,211.990448 145.056351,212.019028 
	C147.208817,212.021118 149.358841,212.359604 151.513748,212.435989 
	C158.625992,212.688126 165.752670,213.259628 172.849823,213.014572 
	C180.564911,212.748154 188.250626,211.675995 195.953842,211.009308 
	C204.020111,210.311172 212.091980,209.677353 220.205627,209.480881 
	C220.266296,243.269669 220.267914,276.593048 220.309402,309.916351 
	C220.320068,318.481567 221.706314,319.882751 230.120010,319.890625 
	C258.278503,319.916992 286.437012,319.911987 314.595520,319.901215 
	C323.518555,319.897797 324.803070,318.646149 324.804230,309.857269 
	C324.815796,220.549469 324.816864,131.241669 324.811249,41.933880 
	C324.810730,33.871941 324.082977,33.154922 315.888184,33.150333 
	C287.562958,33.134460 259.237762,33.136681 230.912552,33.144321 
	C220.948868,33.147011 220.307236,33.808094 220.306168,44.037468 
	C220.300827,94.689751 220.305466,145.342041 220.296326,195.994324 
	C220.295914,198.325012 220.196594,200.655685 219.703262,202.980927 
	C212.800583,202.650330 206.340958,202.150818 199.874695,202.041260 
	C190.399963,201.880722 180.920456,202.013290 171.443054,201.994827 
	C163.660751,201.979660 163.331955,201.331528 162.928116,193.367126 
	C162.483093,184.590378 165.077301,175.704910 162.419449,167.005783 
	C171.487305,166.605682 172.851822,165.196213 172.854416,156.500885 
	C172.861282,133.390060 172.862732,110.279236 172.840897,87.168434 
	C172.835892,81.874565 172.676636,76.580780 172.678925,71.286995 
	C172.683670,60.316071 172.833939,49.344372 172.730103,38.374832 
	C172.704208,35.641193 172.073090,32.769485 167.550659,33.925766 
	C140.579163,33.829269 114.076637,33.767948 87.118790,33.568195 
	C82.683365,32.963760 78.774071,32.745068 75.763123,36.553024 
	C75.205185,36.689980 74.880409,36.697479 74.123024,36.508240 
	C71.901596,36.537106 69.811714,36.158775 68.368103,36.953861 
	C55.597847,43.987206 45.948479,53.941975 40.481293,67.657944 
	C39.759293,69.469292 38.914024,71.231506 37.824745,72.832001 
	C33.737740,70.686539 32.956020,67.359215 32.969971,63.416630 
	C33.043591,42.611313 33.001774,21.805586 33.000000,1.000000 
M309.095184,652.602417 
	C309.707001,653.112915 310.318848,653.623352 311.417023,654.715637 
	C313.141907,655.141541 314.866608,655.939148 316.591736,655.940186 
	C414.115021,655.997864 511.638367,656.000122 609.161621,655.910095 
	C611.132874,655.908264 613.103027,654.753906 615.872986,654.055176 
	C617.482666,653.759094 619.384338,653.892639 620.622925,653.050659 
	C621.961487,652.140747 623.608643,650.178284 623.419312,648.933777 
	C623.213440,647.579956 621.050842,646.523743 619.692444,645.315125 
	C619.692444,645.315125 619.666992,645.267761 619.645996,644.571777 
	C617.943848,642.584900 616.433960,640.385498 614.509155,638.644836 
	C599.359314,624.944519 584.096863,611.368591 568.933594,597.682922 
	C548.588806,579.320740 528.315918,560.879028 507.952454,542.537659 
	C506.816833,541.514832 505.137878,541.095337 503.668091,540.377869 
	C503.668091,540.377869 503.646973,540.335876 503.510986,539.666626 
	C500.585449,537.212524 497.659912,534.758423 494.381012,531.972107 
	C494.148804,531.747070 493.919952,531.518677 493.587128,530.574707 
	C490.158173,529.351807 486.733368,527.076660 483.299683,527.063110 
	C428.145203,526.846863 372.989624,526.902832 317.834412,526.988464 
	C315.797852,526.991577 313.762726,527.924988 311.316254,528.673523 
	C311.316254,528.673523 310.909424,528.928345 310.294861,528.981750 
	C309.761505,529.282410 309.228119,529.583130 308.244751,530.235596 
	C307.934753,530.919189 307.624756,531.602783 307.335999,533.187256 
	C307.361053,553.997864 307.386108,574.808472 307.226837,596.584290 
	C307.283905,598.514404 307.341003,600.444580 307.398193,603.264160 
	C307.376923,618.419983 307.355652,633.575745 307.278137,649.396118 
	C307.779877,650.291565 308.281616,651.186951 309.095184,652.602417 
M74.499977,317.797546 
	C103.989700,317.781891 133.479492,317.731659 162.969070,317.791046 
	C167.006363,317.799194 169.730606,317.130035 169.712524,312.164429 
	C169.603943,282.341125 169.609634,252.517242 169.659500,222.693695 
	C169.667038,218.184784 167.690384,216.593353 163.253159,216.606537 
	C124.266098,216.722427 85.278603,216.682098 46.291294,216.733154 
	C39.845600,216.741592 39.099640,217.499146 39.090519,223.948059 
	C39.049278,253.104965 39.159290,282.262573 38.966644,311.418274 
	C38.933666,316.408691 41.067047,317.898071 45.509518,317.858368 
	C54.839108,317.775055 64.169754,317.810486 74.499977,317.797546 
M661.739136,160.499283 
	C661.733948,136.511688 661.980408,112.520744 661.660095,88.537369 
	C661.254761,58.187614 638.459839,32.821117 605.954773,32.972931 
	C544.655029,33.259232 483.352997,33.054119 422.051941,33.053310 
	C408.059387,33.053123 394.066528,33.000381 380.074432,33.078274 
	C374.259644,33.110649 373.236176,34.145050 373.156067,39.712254 
	C372.935913,55.017319 372.732758,70.323036 372.625153,85.629204 
	C372.501282,103.247147 372.410400,120.866035 372.451385,138.484177 
	C372.480011,150.777328 372.421082,163.086472 373.030853,175.357178 
	C373.471680,184.227875 374.600830,184.812775 383.402191,184.812424 
	C432.709503,184.810455 482.016846,184.804428 531.324158,184.801987 
	C571.469666,184.799988 611.615112,184.815384 651.760620,184.788254 
	C659.368286,184.783112 661.594849,182.552948 661.719666,174.991440 
	C661.793884,170.494995 661.735962,165.996399 661.739136,160.499283 
M524.075439,397.500000 
	C524.078369,426.651855 524.160156,455.804169 524.004456,484.955170 
	C523.979248,489.679443 525.390503,493.186523 528.887817,496.336212 
	C548.549194,514.043396 568.093628,531.880371 587.684509,549.665894 
	C608.136169,568.232727 628.536987,586.856628 649.126404,605.269531 
	C651.637939,607.515564 655.602356,610.422729 658.148621,609.829041 
	C662.379822,608.842468 661.829590,603.817078 661.829773,599.966980 
	C661.834473,510.178619 661.846069,420.390289 661.854126,330.601929 
	C661.856812,300.783447 661.866638,270.964966 661.843201,241.146469 
	C661.837341,233.688065 660.217896,232.182816 652.703796,232.012665 
	C642.722778,231.786652 632.742615,231.190582 622.764343,231.236267 
	C593.294128,231.371170 563.825195,231.758957 534.355469,232.014526 
	C524.547852,232.099579 524.097351,232.450699 524.093750,242.077179 
	C524.074524,293.551453 524.079346,345.025726 524.075439,397.500000 
z"/>
<path fill="#05263D" opacity="1.000000" stroke="none" 
	d="
M220.161392,209.015427 
	C212.091980,209.677353 204.020111,210.311172 195.953842,211.009308 
	C188.250626,211.675995 180.564911,212.748154 172.849823,213.014572 
	C165.752670,213.259628 158.625992,212.688126 151.513748,212.435989 
	C149.358841,212.359604 147.208817,212.021118 145.056351,212.019028 
	C115.575417,211.990448 86.094421,212.019257 56.613506,211.982864 
	C50.959877,211.975876 45.279408,212.045319 39.661522,211.531067 
	C35.083282,211.112000 33.035725,213.058228 32.727234,217.241867 
	C32.361782,222.197952 32.050903,227.171036 32.035275,232.137741 
	C31.963993,254.789566 31.957232,277.441864 32.031479,300.093658 
	C32.056503,307.727875 32.393593,315.360962 32.575096,322.994873 
	C32.594810,323.824036 32.606155,324.666351 32.489445,325.483734 
	C31.371464,333.313812 32.658928,334.926117 40.940464,334.958557 
	C63.758717,335.047882 86.577515,334.997314 109.396103,334.999451 
	C121.388359,335.000580 133.382797,334.863098 145.371796,335.059387 
	C150.201248,335.138428 152.938980,333.388672 153.628540,328.508789 
	C154.007904,325.824127 154.696060,322.460968 158.196960,323.414581 
	C160.121948,323.938934 162.283691,326.640930 162.780853,328.731567 
	C163.843430,333.200043 166.510468,334.847504 170.581131,334.921692 
	C177.241348,335.043121 183.904877,334.996460 190.567001,334.997681 
	C218.049255,335.002808 245.531509,335.008972 273.013763,334.993347 
	C281.953003,334.988281 282.297455,334.529266 283.607819,325.939575 
	C283.814789,324.582794 285.980469,322.355927 286.872742,322.520905 
	C288.619415,322.843842 290.720856,324.237549 291.561035,325.790833 
	C292.902863,328.271637 292.528870,332.628265 294.341339,333.684418 
	C297.052948,335.264435 301.030304,334.936615 304.471802,334.955200 
	C322.293091,335.051331 340.115662,335.068634 357.936676,334.950684 
	C362.372467,334.921356 366.804260,334.288605 371.615356,334.367432 
	C372.004913,335.860077 372.016998,336.918457 371.928864,338.171539 
	C371.894104,338.917297 371.959564,339.468353 372.027222,340.416870 
	C372.008942,341.873627 371.988495,342.932892 371.605194,344.077271 
	C368.154877,343.990112 365.066833,343.660522 361.979980,343.670990 
	C341.579742,343.740295 321.179779,343.881134 300.779724,344.001923 
	C292.874573,344.048737 292.266113,344.908264 291.917389,352.946228 
	C291.713318,357.650726 290.668060,362.318756 289.532501,367.011627 
	C244.376266,367.011536 199.688736,367.002991 154.849457,366.647400 
	C154.184418,361.912811 153.055099,357.492096 153.288879,353.144653 
	C153.745270,344.657196 153.487457,344.009583 144.892578,344.006256 
	C110.926590,343.993134 76.960579,343.985748 42.994652,344.032471 
	C40.520985,344.035889 37.864223,344.020782 35.639263,344.895813 
	C34.159935,345.477600 32.421608,347.567108 32.314240,349.088684 
	C31.894470,355.037384 31.944162,361.031281 32.063187,367.003540 
	C32.356544,381.723083 32.958900,396.438202 33.111591,411.158447 
	C33.277878,427.189758 33.055996,443.224884 33.053490,459.258331 
	C33.052959,462.663757 33.190010,466.115448 37.655025,467.413788 
	C37.700092,468.867523 37.668602,469.928741 37.637112,470.989990 
	C32.733845,473.137024 32.564816,477.823944 32.425697,481.980011 
	C32.026581,493.903442 32.053940,505.843170 32.029755,517.776672 
	C31.982252,541.215942 32.014038,564.655396 32.011017,588.094727 
	C32.010536,591.827087 32.577297,595.179810 37.623947,596.381226 
	C38.051582,598.903564 38.000538,600.950867 37.949493,602.998169 
	C33.132561,604.905457 32.022297,609.062439 32.081551,613.520752 
	C32.182659,621.127563 32.889240,628.727295 32.955219,636.333313 
	C33.099003,652.908691 32.999813,669.486084 32.999954,686.531372 
	C29.969406,687.000000 26.938814,687.000000 23.454155,686.531372 
	C22.999979,661.813477 23.003132,637.564209 22.998098,613.315002 
	C22.996172,604.040222 22.956308,604.008362 13.456797,604.000549 
	C9.304533,603.997131 5.152266,604.000000 1.000000,604.000000 
	C1.000000,601.299988 1.000000,598.599976 1.468547,595.449951 
	C6.595818,594.998596 11.254892,595.032959 15.913177,594.987061 
	C22.297323,594.924194 22.962769,594.259338 22.986738,587.690552 
	C23.026201,576.875854 22.999941,566.060791 22.999996,555.245911 
	C23.000118,531.120361 23.011015,506.994781 22.992001,482.869232 
	C22.986198,475.508026 22.476030,475.035461 14.976172,475.004425 
	C10.317522,474.985138 5.658729,475.000305 1.000000,475.000000 
	C1.000000,472.299988 1.000000,469.599976 1.468408,466.449982 
	C5.767631,465.999786 9.598463,466.006897 13.429257,465.997864 
	C22.393875,465.976715 22.998434,465.380402 22.995876,456.280426 
	C22.985861,420.648132 22.941782,385.015808 22.971735,349.383575 
	C22.974977,345.526154 21.189226,343.969025 17.488789,344.007996 
	C11.993161,344.065796 6.496323,344.008362 1.000000,344.000000 
	C1.000000,341.299988 1.000000,338.599976 1.468547,335.449951 
	C6.596000,334.998718 11.255256,335.033142 15.913727,334.987518 
	C22.296288,334.924957 22.967701,334.258667 22.986280,327.689758 
	C23.023458,314.545044 22.999880,301.400208 22.999983,288.255402 
	C23.000162,265.127228 23.011251,241.999023 22.991890,218.870865 
	C22.985725,211.508270 22.477354,211.036865 14.976725,211.005341 
	C10.317891,210.985764 5.658913,211.000595 1.000000,211.000000 
	C1.000000,208.299988 1.000000,205.599976 1.468547,202.449982 
	C6.265887,201.999619 10.594765,202.016541 14.923451,201.994965 
	C22.151598,201.958908 22.973494,201.198227 22.984299,193.976379 
	C23.018675,171.000549 23.001015,148.024643 22.998842,125.048759 
	C22.997692,112.894897 22.929605,100.740646 23.010195,88.587364 
	C23.040321,84.044014 21.264044,81.787781 16.482071,81.965462 
	C11.328069,82.156960 6.161235,82.003159 1.000000,82.000000 
	C1.000000,78.969406 1.000000,75.938812 1.468542,72.454109 
	C7.411350,71.981079 12.886359,72.010193 18.359606,71.925499 
	C21.729013,71.873360 23.559650,70.217392 23.527935,66.665573 
	C23.332485,44.777222 23.172070,22.888559 23.000000,1.000000 
	C26.030594,1.000000 29.061188,1.000000 32.545891,1.000000 
	C33.001774,21.805586 33.043591,42.611313 32.969971,63.416630 
	C32.956020,67.359215 33.737740,70.686539 37.800667,73.213242 
	C37.762558,75.519882 37.447437,77.260811 36.774208,79.118202 
	C35.285923,81.251350 33.181095,83.262779 33.170181,85.285500 
	C32.971771,122.054634 33.037354,158.825150 33.008896,195.595322 
	C33.005516,199.961380 35.018486,201.993561 39.391502,201.990326 
	C75.371696,201.963745 111.351936,201.957901 147.332092,202.006622 
	C151.359741,202.012070 152.950073,200.223419 153.029556,196.256622 
	C153.224777,186.513977 153.663223,176.776169 154.446991,167.006866 
	C157.259338,166.995773 159.628525,167.014236 161.997696,167.032684 
	C165.077301,175.704910 162.483093,184.590378 162.928116,193.367126 
	C163.331955,201.331528 163.660751,201.979660 171.443054,201.994827 
	C180.920456,202.013290 190.399963,201.880722 199.874695,202.041260 
	C206.340958,202.150818 212.800583,202.650330 219.754089,203.409454 
	C220.217133,205.567398 220.189255,207.291412 220.161392,209.015427 
z"/>
<path fill="#052941" opacity="1.000000" stroke="none" 
	d="
M1.000000,211.468658 
	C5.658913,211.000595 10.317891,210.985764 14.976725,211.005341 
	C22.477354,211.036865 22.985725,211.508270 22.991890,218.870865 
	C23.011251,241.999023 23.000162,265.127228 22.999983,288.255402 
	C22.999880,301.400208 23.023458,314.545044 22.986280,327.689758 
	C22.967701,334.258667 22.296288,334.924957 15.913727,334.987518 
	C11.255256,335.033142 6.596000,334.998718 1.468547,335.000000 
	C1.000000,293.979095 1.000000,252.958206 1.000000,211.468658 
z"/>
<path fill="#052941" opacity="1.000000" stroke="none" 
	d="
M1.000000,344.468658 
	C6.496323,344.008362 11.993161,344.065796 17.488789,344.007996 
	C21.189226,343.969025 22.974977,345.526154 22.971735,349.383575 
	C22.941782,385.015808 22.985861,420.648132 22.995876,456.280426 
	C22.998434,465.380402 22.393875,465.976715 13.429257,465.997864 
	C9.598463,466.006897 5.767631,465.999786 1.468408,466.000000 
	C1.000000,425.645782 1.000000,385.291534 1.000000,344.468658 
z"/>
<path fill="#052941" opacity="1.000000" stroke="none" 
	d="
M1.000000,475.468658 
	C5.658729,475.000305 10.317522,474.985138 14.976172,475.004425 
	C22.476030,475.035461 22.986198,475.508026 22.992001,482.869232 
	C23.011015,506.994781 23.000118,531.120361 22.999996,555.245911 
	C22.999941,566.060791 23.026201,576.875854 22.986738,587.690552 
	C22.962769,594.259338 22.297323,594.924194 15.913177,594.987061 
	C11.254892,595.032959 6.595818,594.998596 1.468547,595.000000 
	C1.000000,555.312439 1.000000,515.624878 1.000000,475.468658 
z"/>
<path fill="#052941" opacity="1.000000" stroke="none" 
	d="
M1.000000,82.468658 
	C6.161235,82.003159 11.328069,82.156960 16.482071,81.965462 
	C21.264044,81.787781 23.040321,84.044014 23.010195,88.587364 
	C22.929605,100.740646 22.997692,112.894897 22.998842,125.048759 
	C23.001015,148.024643 23.018675,171.000549 22.984299,193.976379 
	C22.973494,201.198227 22.151598,201.958908 14.923451,201.994965 
	C10.594765,202.016541 6.265887,201.999619 1.468547,202.000000 
	C1.000000,162.312439 1.000000,122.624878 1.000000,82.468658 
z"/>
<path fill="#052941" opacity="1.000000" stroke="none" 
	d="
M1.000000,604.468628 
	C5.152266,604.000000 9.304533,603.997131 13.456797,604.000549 
	C22.956308,604.008362 22.996172,604.040222 22.998098,613.315002 
	C23.003132,637.564209 22.999979,661.813477 23.000046,686.531372 
	C15.697355,687.000000 8.394711,687.000000 1.000000,687.000000 
	C1.000000,659.645813 1.000000,632.291565 1.000000,604.468628 
z"/>
<path fill="#052941" opacity="1.000000" stroke="none" 
	d="
M22.531219,1.000000 
	C23.172070,22.888559 23.332485,44.777222 23.527935,66.665573 
	C23.559650,70.217392 21.729013,71.873360 18.359606,71.925499 
	C12.886359,72.010193 7.411350,71.981079 1.468542,72.000000 
	C1.000000,48.445282 1.000000,24.890564 1.000000,1.000000 
	C8.017241,1.000000 15.039839,1.000000 22.531219,1.000000 
z"/>
<path fill="#18DFD5" opacity="1.000000" stroke="none" 
	d="
M73.999969,317.797363 
	C64.169754,317.810486 54.839108,317.775055 45.509518,317.858368 
	C41.067047,317.898071 38.933666,316.408691 38.966644,311.418274 
	C39.159290,282.262573 39.049278,253.104965 39.090519,223.948059 
	C39.099640,217.499146 39.845600,216.741592 46.291294,216.733154 
	C85.278603,216.682098 124.266098,216.722427 163.253159,216.606537 
	C167.690384,216.593353 169.667038,218.184784 169.659500,222.693695 
	C169.609634,252.517242 169.603943,282.341125 169.712524,312.164429 
	C169.730606,317.130035 167.006363,317.799194 162.969070,317.791046 
	C133.479492,317.731659 103.989700,317.781891 73.999969,317.797363 
z"/>
<path fill="#1A5979" opacity="1.000000" stroke="none" 
	d="
M661.738281,160.999023 
	C661.735962,165.996399 661.793884,170.494995 661.719666,174.991440 
	C661.594849,182.552948 659.368286,184.783112 651.760620,184.788254 
	C611.615112,184.815384 571.469666,184.799988 531.324158,184.801987 
	C482.016846,184.804428 432.709503,184.810455 383.402191,184.812424 
	C374.600830,184.812775 373.471680,184.227875 373.030853,175.357178 
	C372.421082,163.086472 372.480011,150.777328 372.451385,138.484177 
	C372.410400,120.866035 372.501282,103.247147 372.625153,85.629204 
	C372.732758,70.323036 372.935913,55.017319 373.156067,39.712254 
	C373.236176,34.145050 374.259644,33.110649 380.074432,33.078274 
	C394.066528,33.000381 408.059387,33.053123 422.051941,33.053310 
	C483.352997,33.054119 544.655029,33.259232 605.954773,32.972931 
	C638.459839,32.821117 661.254761,58.187614 661.660095,88.537369 
	C661.980408,112.520744 661.733948,136.511688 661.738281,160.999023 
M649.492981,59.226662 
	C644.039734,53.934765 639.109741,47.917671 633.012390,43.518536 
	C623.527771,36.675537 612.010254,35.082138 600.661133,35.049522 
	C528.693054,34.842712 456.723999,34.939777 384.755280,34.949898 
	C376.992767,34.950989 376.385010,35.611504 376.384125,43.670910 
	C376.379425,86.485687 376.381042,129.300476 376.381775,172.115250 
	C376.381805,173.281357 376.457245,174.450775 376.393463,175.612946 
	C376.185547,179.399857 378.016327,181.167908 381.735565,181.157990 
	C383.234558,181.153992 384.733673,181.211578 386.232727,181.211609 
	C471.029022,181.213760 555.825317,181.213348 640.621643,181.210312 
	C644.619751,181.210159 648.617920,181.162292 652.615967,181.176025 
	C656.228882,181.188431 658.119812,179.743958 658.104309,175.813812 
	C657.989380,146.661179 658.213623,117.504761 657.799683,88.357094 
	C657.657715,78.359772 655.743408,68.456329 649.492981,59.226662 
z"/>
<path fill="#14A0A2" opacity="1.000000" stroke="none" 
	d="
M38.084305,603.418213 
	C38.000538,600.950867 38.051582,598.903564 37.987045,596.430054 
	C38.002018,593.182129 38.239334,590.360596 38.245655,587.538513 
	C38.284100,570.372070 38.250996,553.205383 38.281830,536.038879 
	C38.296059,528.117310 38.780716,527.674438 46.877167,527.601318 
	C49.710239,527.575684 52.543743,527.598022 55.377048,527.597717 
	C119.876389,527.590576 184.375732,527.582642 248.875076,527.576904 
	C258.182831,527.576050 258.518219,527.892090 258.517609,537.078796 
	C258.515259,572.911743 258.513641,608.744690 258.478424,644.577637 
	C258.469574,653.587402 257.794678,653.982239 248.698715,653.974670 
	C200.200043,653.934631 151.701233,654.051453 103.202606,653.993530 
	C91.756996,653.979858 80.126465,654.827393 69.379517,649.453857 
	C50.536720,640.032288 40.318104,624.705017 38.084305,603.418213 
M67.759674,644.892944 
	C74.099457,648.605713 80.990623,650.213440 88.287529,650.237000 
	C101.614761,650.280151 114.942047,650.332336 128.269318,650.336670 
	C168.251785,650.349731 208.234268,650.324890 248.216690,650.367615 
	C252.221909,650.371887 255.448746,650.184326 255.431091,644.733948 
	C255.313904,608.583618 255.329147,572.432678 255.384598,536.282104 
	C255.390915,532.162170 253.552994,530.634888 249.611771,530.716980 
	C243.617050,530.841858 237.617783,530.747681 231.620438,530.747437 
	C171.146988,530.744873 110.673531,530.740356 50.200073,530.742737 
	C42.181305,530.743042 41.773426,531.137207 41.762680,539.225403 
	C41.736332,559.050049 41.537361,578.877258 41.792995,598.698547 
	C42.046757,618.374817 49.868713,634.114990 67.759674,644.892944 
z"/>
<path fill="#055764" opacity="1.000000" stroke="none" 
	d="
M524.075684,397.000000 
	C524.079346,345.025726 524.074524,293.551453 524.093750,242.077179 
	C524.097351,232.450699 524.547852,232.099579 534.355469,232.014526 
	C563.825195,231.758957 593.294128,231.371170 622.764343,231.236267 
	C632.742615,231.190582 642.722778,231.786652 652.703796,232.012665 
	C660.217896,232.182816 661.837341,233.688065 661.843201,241.146469 
	C661.866638,270.964966 661.856812,300.783447 661.854126,330.601929 
	C661.846069,420.390289 661.834473,510.178619 661.829773,599.966980 
	C661.829590,603.817078 662.379822,608.842468 658.148621,609.829041 
	C655.602356,610.422729 651.637939,607.515564 649.126404,605.269531 
	C628.536987,586.856628 608.136169,568.232727 587.684509,549.665894 
	C568.093628,531.880371 548.549194,514.043396 528.887817,496.336212 
	C525.390503,493.186523 523.979248,489.679443 524.004456,484.955170 
	C524.160156,455.804169 524.078369,426.651855 524.075684,397.000000 
M631.054443,585.457153 
	C637.127930,590.911072 643.107605,596.475342 649.324463,601.760620 
	C651.581116,603.679199 654.404297,604.931519 656.968994,606.487793 
	C657.606445,603.531494 658.799011,600.575623 658.801331,597.618835 
	C658.893616,479.287628 658.880676,360.956390 658.870483,242.625137 
	C658.869812,235.216125 658.387390,234.737427 650.872803,234.734299 
	C618.206665,234.720703 585.540527,234.734680 552.874390,234.737335 
	C546.374512,234.737854 539.874390,234.693375 533.374878,234.741394 
	C526.879028,234.789383 526.127441,235.553650 526.033569,241.851730 
	C526.011230,243.351395 526.026428,244.851639 526.026489,246.351608 
	C526.031433,325.016876 526.087402,403.682220 525.932922,482.347168 
	C525.922058,487.857025 527.605347,491.716339 531.643066,495.356873 
	C564.681763,525.145386 597.584106,555.084961 631.054443,585.457153 
z"/>
<path fill="#3D9FC9" opacity="1.000000" stroke="none" 
	d="
M310.909424,528.928345 
	C310.909424,528.928345 311.316254,528.673523 311.993042,528.690796 
	C315.333649,528.773560 317.997406,528.895691 320.661194,528.896179 
	C373.826416,528.906128 426.991852,528.844360 480.156586,529.004211 
	C484.671478,529.017761 489.181946,530.491455 493.694489,531.286865 
	C493.919952,531.518677 494.148804,531.747070 494.639221,532.463013 
	C497.813904,535.414551 500.730438,537.875244 503.646973,540.335876 
	C503.646973,540.335876 503.668091,540.377869 503.773773,540.705750 
	C504.978180,542.269104 505.972961,543.619263 507.190826,544.723389 
	C543.387756,577.541443 579.601135,610.341431 615.850464,643.101562 
	C616.909973,644.059021 618.385498,644.556030 619.666992,645.267700 
	C619.666992,645.267761 619.692444,645.315125 619.777344,645.668213 
	C621.453003,648.594910 620.799072,650.261169 617.877014,651.101440 
	C615.401245,651.813354 612.949219,652.607544 610.051453,653.339478 
	C605.621460,653.353882 601.626587,653.428284 597.631775,653.429138 
	C502.911865,653.449402 408.191925,653.461731 313.254578,653.201294 
	C312.118500,650.045654 310.488708,647.185547 310.401764,644.279175 
	C309.979462,630.163330 309.970581,616.035095 309.863831,601.497437 
	C309.878387,599.419128 309.844391,597.754639 309.931824,595.628601 
	C310.127258,585.866272 310.160309,576.564880 310.285187,567.264771 
	C310.456818,554.485474 310.698029,541.707092 310.909424,528.928345 
M594.566345,626.925171 
	C584.813416,618.110229 575.076172,609.277893 565.304565,600.483704 
	C541.919556,579.437683 518.403503,558.534790 495.227264,537.261536 
	C490.945007,533.330933 486.777039,531.679199 481.049438,531.697327 
	C427.730438,531.865845 374.410706,531.797363 321.091187,531.805054 
	C313.377228,531.806152 312.952972,532.225342 312.950104,540.058777 
	C312.938324,572.050476 312.936981,604.042236 312.964172,636.033936 
	C312.966125,638.359009 313.096252,640.700562 313.391357,643.005676 
	C314.297485,650.083679 314.339966,650.105042 321.350952,650.107666 
	C352.176300,650.119141 383.001648,650.115295 413.826996,650.114197 
	C476.810669,650.111877 539.794373,650.132324 602.777954,650.054138 
	C607.449341,650.048340 612.119812,649.328796 616.790649,648.941040 
	C616.864258,648.480957 616.937805,648.020874 617.011353,647.560791 
	C609.698120,640.847168 602.384827,634.133484 594.566345,626.925171 
z"/>
<path fill="#0B747C" opacity="1.000000" stroke="none" 
	d="
M220.205627,209.480881 
	C220.189255,207.291412 220.217133,205.567398 220.194168,203.414871 
	C220.196594,200.655685 220.295914,198.325012 220.296326,195.994324 
	C220.305466,145.342041 220.300827,94.689751 220.306168,44.037468 
	C220.307236,33.808094 220.948868,33.147011 230.912552,33.144321 
	C259.237762,33.136681 287.562958,33.134460 315.888184,33.150333 
	C324.082977,33.154922 324.810730,33.871941 324.811249,41.933880 
	C324.816864,131.241669 324.815796,220.549469 324.804230,309.857269 
	C324.803070,318.646149 323.518555,319.897797 314.595520,319.901215 
	C286.437012,319.911987 258.278503,319.916992 230.120010,319.890625 
	C221.706314,319.882751 220.320068,318.481567 220.309402,309.916351 
	C220.267914,276.593048 220.266296,243.269669 220.205627,209.480881 
M321.982819,234.500000 
	C321.984100,171.038528 321.985565,107.577049 321.986511,44.115574 
	C321.986633,34.832863 321.985382,34.826824 312.514740,34.824654 
	C285.531219,34.818474 258.547668,34.812542 231.564133,34.817928 
	C223.528030,34.819534 223.032715,35.284298 223.031647,43.262611 
	C223.019791,131.875397 223.019135,220.488190 223.026566,309.100983 
	C223.027191,316.555389 223.509445,317.076965 230.945374,317.087250 
	C258.761719,317.125671 286.578125,317.121796 314.394501,317.112427 
	C321.626923,317.109985 321.977814,316.756165 321.982239,309.455078 
	C321.997223,284.803375 321.984741,260.151703 321.982819,234.500000 
z"/>
<path fill="#236B8E" opacity="1.000000" stroke="none" 
	d="
M37.731636,471.345978 
	C37.668602,469.928741 37.700092,468.867523 37.734871,466.948853 
	C37.782303,463.770630 37.860348,461.449890 37.865452,459.129028 
	C37.930038,429.770874 37.984123,400.412689 38.382877,370.885010 
	C42.126926,370.179138 45.528603,369.176849 48.931087,369.174103 
	C153.814743,369.089264 258.698456,369.102509 363.582184,369.098267 
	C365.246735,369.098206 366.911499,369.082092 368.575745,369.050690 
	C372.247711,368.981384 374.100525,367.070709 374.086731,363.427612 
	C374.057129,355.607056 373.978760,347.786652 373.942993,339.644135 
	C373.951965,338.892090 373.938324,338.462097 373.988953,337.564941 
	C374.087341,306.056915 374.092712,275.015930 374.197876,243.975250 
	C374.209045,240.685410 374.805542,237.397537 375.130463,234.108749 
	C375.130463,234.108749 375.036804,234.071823 375.483185,234.058685 
	C379.046509,233.770691 382.160065,233.313339 385.281067,233.255066 
	C394.856079,233.076279 404.433929,233.050491 414.010681,232.965225 
	C416.705994,232.991928 419.401306,233.018631 423.010498,233.077026 
	C430.694275,233.147705 437.466553,233.087173 444.233490,233.249237 
	C454.116425,233.485901 463.995605,233.882431 473.876373,234.210785 
	C474.185242,234.653763 474.494110,235.096725 474.907501,236.222809 
	C474.989380,263.983826 474.945190,291.061707 474.959320,318.139618 
	C474.962799,324.777588 475.156616,331.415466 475.262909,338.053406 
	C475.245361,339.091553 475.227783,340.129730 475.153076,342.022400 
	C475.058777,383.113007 475.019806,423.349121 474.997192,463.585236 
	C474.996735,464.409119 475.186157,465.233124 475.286987,466.057068 
	C475.231567,468.423828 475.176117,470.790588 474.905334,473.780518 
	C474.365784,474.872650 474.041595,475.341553 473.717407,475.810455 
	C473.717407,475.810455 473.355164,475.888000 472.914154,475.857971 
	C471.982178,475.571167 471.491180,475.314331 471.067596,474.728210 
	C471.290894,473.748077 471.446838,473.097290 471.826721,472.135986 
	C472.315582,469.365417 472.805054,466.905914 472.810699,464.445282 
	C472.869690,438.791290 472.852814,413.137054 472.853394,387.482910 
	C472.854462,340.172668 472.861420,292.862457 472.846375,245.552216 
	C472.843140,235.425629 472.440796,235.052612 462.608429,235.053116 
	C436.621124,235.054474 410.633850,235.051208 384.646545,235.059921 
	C376.286499,235.062729 375.978699,235.375305 375.976868,243.833252 
	C375.968231,283.313995 375.978363,322.794708 375.954803,362.275452 
	C375.950043,370.254120 375.327179,370.868164 367.456482,370.874237 
	C339.303558,370.895905 311.150635,370.893127 282.997711,370.892487 
	C204.702576,370.890717 126.407455,370.881592 48.112328,370.887238 
	C40.673595,370.887787 39.819427,371.482178 39.811520,377.514618 
	C39.771572,407.999542 39.786507,438.484741 39.924400,468.969177 
	C39.932209,470.694519 41.203014,472.414154 41.950089,474.365356 
	C42.014187,474.594269 42.000820,475.069519 41.782372,475.254211 
	C41.033215,475.653442 40.502506,475.867920 39.971798,476.082428 
	C39.256588,474.622284 38.541378,473.162109 37.731636,471.345978 
z"/>
<path fill="#3693BE" opacity="1.000000" stroke="none" 
	d="
M74.554245,36.645168 
	C74.880409,36.697479 75.205185,36.689980 76.084808,36.643600 
	C80.285393,35.678562 83.929749,34.692596 87.574112,33.706627 
	C114.076637,33.767948 140.579163,33.829269 167.720520,34.270966 
	C168.841858,36.730480 169.739685,38.808487 169.745361,40.888927 
	C169.852249,80.050560 169.853668,119.212479 169.874985,158.374344 
	C169.875259,158.874039 169.838043,159.373688 169.835205,159.873459 
	C169.817841,162.937256 168.230011,164.503265 165.217636,164.565521 
	C161.553070,164.641251 157.886612,164.643921 154.220963,164.644638 
	C118.225243,164.651688 82.229523,164.640961 46.233822,164.668411 
	C42.029873,164.671616 38.787422,164.282471 38.837311,158.592102 
	C39.047691,134.596725 38.698917,110.594604 39.079964,86.603294 
	C39.274845,74.332932 43.275284,63.302017 51.431660,53.607220 
	C57.877411,45.945698 66.074226,41.236748 74.554245,36.645168 
M121.499992,36.789257 
	C112.669609,36.788746 103.747620,35.998253 95.034477,37.008728 
	C86.227303,38.030102 76.842041,39.273521 69.091415,43.168522 
	C50.035328,52.744968 41.947433,69.714905 41.848759,90.661514 
	C41.747509,112.153984 41.812992,133.647278 41.819729,155.140198 
	C41.822201,163.033844 41.840771,163.047531 49.994640,163.048401 
	C86.482635,163.052307 122.970634,163.048462 159.458633,163.045685 
	C167.950058,163.045044 167.973907,163.041885 167.961533,154.399490 
	C167.908585,117.424149 167.833557,80.448830 167.785187,43.473473 
	C167.778076,38.037731 166.679733,36.836613 160.987259,36.813457 
	C148.158356,36.761269 135.329102,36.791416 121.499992,36.789257 
z"/>
<path fill="#134B6A" opacity="1.000000" stroke="none" 
	d="
M74.123024,36.508240 
	C66.074226,41.236748 57.877411,45.945698 51.431660,53.607220 
	C43.275284,63.302017 39.274845,74.332932 39.079964,86.603294 
	C38.698917,110.594604 39.047691,134.596725 38.837311,158.592102 
	C38.787422,164.282471 42.029873,164.671616 46.233822,164.668411 
	C82.229523,164.640961 118.225243,164.651688 154.220963,164.644638 
	C157.886612,164.643921 161.553070,164.641251 165.217636,164.565521 
	C168.230011,164.503265 169.817841,162.937256 169.835205,159.873459 
	C169.838043,159.373688 169.875259,158.874039 169.874985,158.374344 
	C169.853668,119.212479 169.852249,80.050560 169.745361,40.888927 
	C169.739685,38.808487 168.841858,36.730480 168.189484,34.306141 
	C172.073090,32.769485 172.704208,35.641193 172.730103,38.374832 
	C172.833939,49.344372 172.683670,60.316071 172.678925,71.286995 
	C172.676636,76.580780 172.835892,81.874565 172.840897,87.168434 
	C172.862732,110.279236 172.861282,133.390060 172.854416,156.500885 
	C172.851822,165.196213 171.487305,166.605682 162.419449,167.005783 
	C159.628525,167.014236 157.259338,166.995773 153.978470,166.980072 
	C117.300247,166.964615 81.533707,166.958221 45.767208,166.918793 
	C37.998791,166.910233 37.102081,166.015625 37.099674,158.353500 
	C37.091362,131.902908 37.118610,105.452324 37.132317,79.001740 
	C37.447437,77.260811 37.762558,75.519882 38.101761,73.397713 
	C38.914024,71.231506 39.759293,69.469292 40.481293,67.657944 
	C45.948479,53.941975 55.597847,43.987206 68.368103,36.953861 
	C69.811714,36.158775 71.901596,36.537106 74.123024,36.508240 
z"/>
<path fill="#0E4161" opacity="1.000000" stroke="none" 
	d="
M471.000214,475.057526 
	C471.491180,475.314331 471.982178,475.571167 472.738831,475.917786 
	C470.398468,476.667969 467.793488,477.900391 465.186310,477.904907 
	C402.412842,478.013916 339.639191,477.989410 276.865540,477.993591 
	C200.271652,477.998688 123.677773,478.019196 47.083946,477.959290 
	C44.867672,477.957550 42.652058,477.123505 40.203968,476.379974 
	C40.502506,475.867920 41.033215,475.653442 42.200363,475.250549 
	C185.557938,475.060638 328.279083,475.059082 471.000214,475.057526 
z"/>
<path fill="#0B3C5B" opacity="1.000000" stroke="none" 
	d="
M313.472015,653.475525 
	C408.191925,653.461731 502.911865,653.449402 597.631775,653.429138 
	C601.626587,653.428284 605.621460,653.353882 610.499268,653.482483 
	C612.612793,653.813232 613.843262,653.975281 615.073730,654.137268 
	C613.103027,654.753906 611.132874,655.908264 609.161621,655.910095 
	C511.638367,656.000122 414.115021,655.997864 316.591736,655.940186 
	C314.866608,655.939148 313.141907,655.141541 311.601105,654.329224 
	C312.347473,653.787109 312.909729,653.631287 313.472015,653.475525 
z"/>
<path fill="#1B5D80" opacity="1.000000" stroke="none" 
	d="
M619.656494,644.919739 
	C618.385498,644.556030 616.909973,644.059021 615.850464,643.101562 
	C579.601135,610.341431 543.387756,577.541443 507.190826,544.723389 
	C505.972961,543.619263 504.978180,542.269104 503.795654,540.714294 
	C505.137878,541.095337 506.816833,541.514832 507.952454,542.537659 
	C528.315918,560.879028 548.588806,579.320740 568.933594,597.682922 
	C584.096863,611.368591 599.359314,624.944519 614.509155,638.644836 
	C616.433960,640.385498 617.943848,642.584900 619.656494,644.919739 
z"/>
<path fill="#1B5D80" opacity="1.000000" stroke="none" 
	d="
M493.640808,530.930786 
	C489.181946,530.491455 484.671478,529.017761 480.156586,529.004211 
	C426.991852,528.844360 373.826416,528.906128 320.661194,528.896179 
	C317.997406,528.895691 315.333649,528.773560 312.198395,528.566406 
	C313.762726,527.924988 315.797852,526.991577 317.834412,526.988464 
	C372.989624,526.902832 428.145203,526.846863 483.299683,527.063110 
	C486.733368,527.076660 490.158173,529.351807 493.640808,530.930786 
z"/>
<path fill="#0C3C59" opacity="1.000000" stroke="none" 
	d="
M475.551697,465.803406 
	C475.186157,465.233124 474.996735,464.409119 474.997192,463.585236 
	C475.019806,423.349121 475.058777,383.113007 475.184296,342.410919 
	C475.843414,343.944611 476.906921,345.942993 476.911957,347.944092 
	C477.006439,385.400543 476.990784,422.857361 476.921509,460.313934 
	C476.918274,462.059875 476.201050,463.804504 475.551697,465.803406 
z"/>
<path fill="#0C3C59" opacity="1.000000" stroke="none" 
	d="
M374.788330,234.249710 
	C374.805542,237.397537 374.209045,240.685410 374.197876,243.975250 
	C374.092712,275.015930 374.087341,306.056915 373.673248,337.563416 
	C372.871887,338.011627 372.450500,337.994232 372.029083,337.976868 
	C372.016998,336.918457 372.004913,335.860077 371.977600,334.405273 
	C371.982025,303.524323 371.940155,273.039459 372.126312,242.555939 
	C372.142975,239.829559 373.637848,237.112213 374.788330,234.249710 
z"/>
<path fill="#0C3C59" opacity="1.000000" stroke="none" 
	d="
M475.530334,337.801422 
	C475.156616,331.415466 474.962799,324.777588 474.959320,318.139618 
	C474.945190,291.061707 474.989380,263.983826 475.070831,236.438034 
	C475.746704,237.772598 476.895386,239.573166 476.901764,241.377762 
	C477.009521,271.857391 476.992676,302.337585 476.922272,332.817474 
	C476.918640,334.395660 476.189209,335.972137 475.530334,337.801422 
z"/>
<path fill="#1B5D80" opacity="1.000000" stroke="none" 
	d="
M310.602142,528.955078 
	C310.698029,541.707092 310.456818,554.485474 310.285187,567.264771 
	C310.160309,576.564880 310.127258,585.866272 309.625183,595.598816 
	C308.601807,595.893433 308.006470,595.756287 307.411163,595.619080 
	C307.386108,574.808472 307.361053,553.997864 307.547424,532.553711 
	C308.070831,531.241455 308.382812,530.562622 308.694763,529.883789 
	C309.228119,529.583130 309.761505,529.282410 310.602142,528.955078 
z"/>
<path fill="#1B5D80" opacity="1.000000" stroke="none" 
	d="
M313.254578,653.201294 
	C312.909729,653.631287 312.347473,653.787109 311.357910,654.038330 
	C310.318848,653.623352 309.707001,653.112915 308.941956,652.020081 
	C308.303955,650.535706 307.819153,649.633606 307.334351,648.731567 
	C307.355652,633.575745 307.376923,618.419983 307.693298,602.746399 
	C308.597351,602.122864 309.206329,602.017090 309.815308,601.911255 
	C309.970581,616.035095 309.979462,630.163330 310.401764,644.279175 
	C310.488708,647.185547 312.118500,650.045654 313.254578,653.201294 
z"/>
<path fill="#0C3C59" opacity="1.000000" stroke="none" 
	d="
M473.770691,233.843414 
	C463.995605,233.882431 454.116425,233.485901 444.233490,233.249237 
	C437.466553,233.087173 430.694275,233.147705 423.458771,233.042725 
	C424.770111,232.335220 426.540771,231.158615 428.325104,231.137497 
	C441.603912,230.980255 454.886810,230.958817 468.164459,231.159882 
	C470.009247,231.187820 471.832001,232.668076 473.770691,233.843414 
z"/>
<path fill="#0C3C59" opacity="1.000000" stroke="none" 
	d="
M413.782532,232.665314 
	C404.433929,233.050491 394.856079,233.076279 385.281067,233.255066 
	C382.160065,233.313339 379.046509,233.770691 375.519653,234.093384 
	C376.493744,233.153976 377.860474,231.340210 379.264404,231.310928 
	C389.975891,231.087555 400.694824,231.190582 411.410736,231.277390 
	C412.128174,231.283203 412.839935,231.986511 413.782532,232.665314 
z"/>
<path fill="#1B5D80" opacity="1.000000" stroke="none" 
	d="
M615.473389,654.096191 
	C613.843262,653.975281 612.612793,653.813232 610.934448,653.508301 
	C612.949219,652.607544 615.401245,651.813354 617.877014,651.101440 
	C620.799072,650.261169 621.453003,648.594910 619.801758,645.679504 
	C621.050842,646.523743 623.213440,647.579956 623.419312,648.933777 
	C623.608643,650.178284 621.961487,652.140747 620.622925,653.050659 
	C619.384338,653.892639 617.482666,653.759094 615.473389,654.096191 
z"/>
<path fill="#134B6A" opacity="1.000000" stroke="none" 
	d="
M87.118790,33.568199 
	C83.929749,34.692596 80.285393,35.678562 76.319351,36.573956 
	C78.774071,32.745068 82.683365,32.963760 87.118790,33.568199 
z"/>
<path fill="#1B5D80" opacity="1.000000" stroke="none" 
	d="
M503.578979,540.001221 
	C500.730438,537.875244 497.813904,535.414551 494.815857,532.629150 
	C497.659912,534.758423 500.585449,537.212524 503.578979,540.001221 
z"/>
<path fill="#0D3C5C" opacity="1.000000" stroke="none" 
	d="
M309.863831,601.497437 
	C309.206329,602.017090 308.597351,602.122864 307.693237,602.301636 
	C307.341003,600.444580 307.283905,598.514404 307.319000,596.101685 
	C308.006470,595.756287 308.601807,595.893433 309.503754,596.060364 
	C309.844391,597.754639 309.878387,599.419128 309.863831,601.497437 
z"/>
<path fill="#0D3C5C" opacity="1.000000" stroke="none" 
	d="
M307.306244,649.063843 
	C307.819153,649.633606 308.303955,650.535706 308.786041,651.760071 
	C308.281616,651.186951 307.779877,650.291565 307.306244,649.063843 
z"/>
<path fill="#0D3C5C" opacity="1.000000" stroke="none" 
	d="
M308.469788,530.059692 
	C308.382812,530.562622 308.070831,531.241455 307.536804,532.103271 
	C307.624756,531.602783 307.934753,530.919189 308.469788,530.059692 
z"/>
<path fill="#0C3C59" opacity="1.000000" stroke="none" 
	d="
M473.952911,475.777710 
	C474.041595,475.341553 474.365784,474.872650 474.914948,474.225708 
	C474.822754,474.613464 474.505554,475.179199 473.952911,475.777710 
z"/>
<path fill="#052A41" opacity="1.000000" stroke="none" 
	d="
M36.774208,79.118202 
	C37.118610,105.452324 37.091362,131.902908 37.099674,158.353500 
	C37.102081,166.015625 37.998791,166.910233 45.767208,166.918793 
	C81.533707,166.958221 117.300247,166.964615 153.535309,167.009644 
	C153.663223,176.776169 153.224777,186.513977 153.029556,196.256622 
	C152.950073,200.223419 151.359741,202.012070 147.332092,202.006622 
	C111.351936,201.957901 75.371696,201.963745 39.391502,201.990326 
	C35.018486,201.993561 33.005516,199.961380 33.008896,195.595322 
	C33.037354,158.825150 32.971771,122.054634 33.170181,85.285500 
	C33.181095,83.262779 35.285923,81.251350 36.774208,79.118202 
z"/>
<path fill="#052A41" opacity="1.000000" stroke="none" 
	d="
M38.040886,371.054535 
	C37.984123,400.412689 37.930038,429.770874 37.865452,459.129028 
	C37.860348,461.449890 37.782303,463.770630 37.658310,466.556366 
	C33.190010,466.115448 33.052959,462.663757 33.053490,459.258331 
	C33.055996,443.224884 33.277878,427.189758 33.111591,411.158447 
	C32.958900,396.438202 32.356544,381.723083 32.063187,367.003540 
	C31.944162,361.031281 31.894470,355.037384 32.314240,349.088684 
	C32.421608,347.567108 34.159935,345.477600 35.639263,344.895813 
	C37.864223,344.020782 40.520985,344.035889 42.994652,344.032471 
	C76.960579,343.985748 110.926590,343.993134 144.892578,344.006256 
	C153.487457,344.009583 153.745270,344.657196 153.288879,353.144653 
	C153.055099,357.492096 154.184418,361.912811 154.380707,366.655182 
	C119.118790,367.009705 84.173866,367.008606 49.228935,367.011322 
	C47.065968,367.011475 44.722645,366.527802 42.792419,367.206055 
	C40.981422,367.842407 39.607262,369.721985 38.040886,371.054535 
z"/>
<path fill="#052A41" opacity="1.000000" stroke="none" 
	d="
M290.001221,367.003174 
	C290.668060,362.318756 291.713318,357.650726 291.917389,352.946228 
	C292.266113,344.908264 292.874573,344.048737 300.779724,344.001923 
	C321.179779,343.881134 341.579742,343.740295 361.979980,343.670990 
	C365.066833,343.660522 368.154877,343.990112 371.618164,344.546631 
	C372.001892,349.750366 372.036377,354.570038 372.011444,359.389343 
	C371.974731,366.480347 371.470184,366.997406 364.288452,367.001984 
	C339.526031,367.017822 314.763641,367.005066 290.001221,367.003174 
z"/>
<path fill="#0C3C59" opacity="1.000000" stroke="none" 
	d="
M289.532501,367.011627 
	C314.763641,367.005066 339.526031,367.017822 364.288452,367.001984 
	C371.470184,366.997406 371.974731,366.480347 372.011444,359.389343 
	C372.036377,354.570038 372.001892,349.750366 371.981018,344.461548 
	C371.988495,342.932892 372.008942,341.873627 372.343018,340.403015 
	C373.077881,339.983185 373.499146,339.974670 373.920380,339.966187 
	C373.978760,347.786652 374.057129,355.607056 374.086731,363.427612 
	C374.100525,367.070709 372.247711,368.981384 368.575745,369.050690 
	C366.911499,369.082092 365.246735,369.098206 363.582184,369.098267 
	C258.698456,369.102509 153.814743,369.089264 48.931087,369.174103 
	C45.528603,369.176849 42.126926,370.179138 38.382874,370.885010 
	C39.607262,369.721985 40.981422,367.842407 42.792419,367.206055 
	C44.722645,366.527802 47.065968,367.011475 49.228935,367.011322 
	C84.173866,367.008606 119.118790,367.009705 154.532471,367.002197 
	C199.688736,367.002991 244.376266,367.011536 289.532501,367.011627 
z"/>
<path fill="#052A41" opacity="1.000000" stroke="none" 
	d="
M373.942993,339.644135 
	C373.499146,339.974670 373.077881,339.983185 372.340820,340.005554 
	C371.959564,339.468353 371.894104,338.917297 371.928864,338.171539 
	C372.450500,337.994232 372.871887,338.011627 373.609009,338.030579 
	C373.938324,338.462097 373.951965,338.892090 373.942993,339.644135 
z"/>
<path fill="#4BC2F6" opacity="1.000000" stroke="none" 
	d="
M649.678894,59.544014 
	C655.743408,68.456329 657.657715,78.359772 657.799683,88.357094 
	C658.213623,117.504761 657.989380,146.661179 658.104309,175.813812 
	C658.119812,179.743958 656.228882,181.188431 652.615967,181.176025 
	C648.617920,181.162292 644.619751,181.210159 640.621643,181.210312 
	C555.825317,181.213348 471.029022,181.213760 386.232727,181.211609 
	C384.733673,181.211578 383.234558,181.153992 381.735565,181.157990 
	C378.016327,181.167908 376.185547,179.399857 376.393463,175.612946 
	C376.457245,174.450775 376.381805,173.281357 376.381775,172.115250 
	C376.381042,129.300476 376.379425,86.485687 376.384125,43.670910 
	C376.385010,35.611504 376.992767,34.950989 384.755280,34.949898 
	C456.723999,34.939777 528.693054,34.842712 600.661133,35.049522 
	C612.010254,35.082138 623.527771,36.675537 633.012390,43.518536 
	C639.109741,47.917671 644.039734,53.934765 649.678894,59.544014 
z"/>
<path fill="#18E3D9" opacity="1.000000" stroke="none" 
	d="
M67.435188,644.710266 
	C49.868713,634.114990 42.046757,618.374817 41.792995,598.698547 
	C41.537361,578.877258 41.736332,559.050049 41.762680,539.225403 
	C41.773426,531.137207 42.181305,530.743042 50.200073,530.742737 
	C110.673531,530.740356 171.146988,530.744873 231.620438,530.747437 
	C237.617783,530.747681 243.617050,530.841858 249.611771,530.716980 
	C253.552994,530.634888 255.390915,532.162170 255.384598,536.282104 
	C255.329147,572.432678 255.313904,608.583618 255.431091,644.733948 
	C255.448746,650.184326 252.221909,650.371887 248.216690,650.367615 
	C208.234268,650.324890 168.251785,650.349731 128.269318,650.336670 
	C114.942047,650.332336 101.614761,650.280151 88.287529,650.237000 
	C80.990623,650.213440 74.099457,648.605713 67.435188,644.710266 
z"/>
<path fill="#17B7B4" opacity="1.000000" stroke="none" 
	d="
M630.791138,585.217896 
	C597.584106,555.084961 564.681763,525.145386 531.643066,495.356873 
	C527.605347,491.716339 525.922058,487.857025 525.932922,482.347168 
	C526.087402,403.682220 526.031433,325.016876 526.026489,246.351608 
	C526.026428,244.851639 526.011230,243.351395 526.033569,241.851730 
	C526.127441,235.553650 526.879028,234.789383 533.374878,234.741394 
	C539.874390,234.693375 546.374512,234.737854 552.874390,234.737335 
	C585.540527,234.734680 618.206665,234.720703 650.872803,234.734299 
	C658.387390,234.737427 658.869812,235.216125 658.870483,242.625137 
	C658.880676,360.956390 658.893616,479.287628 658.801331,597.618835 
	C658.799011,600.575623 657.606445,603.531494 656.968994,606.487793 
	C654.404297,604.931519 651.581116,603.679199 649.324463,601.760620 
	C643.107605,596.475342 637.127930,590.911072 630.791138,585.217896 
M656.076355,411.500000 
	C656.075439,356.179962 656.080505,300.859955 656.066162,245.539917 
	C656.064392,238.656296 654.804688,237.409042 648.473389,237.457275 
	C629.982605,237.598145 611.491699,237.763229 593.000549,237.805573 
	C574.505981,237.847931 556.008606,237.918518 537.517456,237.641525 
	C529.645874,237.523575 528.895325,237.797119 528.889587,245.734085 
	C528.868713,274.727142 528.877991,303.720184 528.879517,332.713226 
	C528.882141,382.534607 528.830322,432.356171 529.025146,482.176819 
	C529.037598,485.365967 530.043945,489.485809 532.163208,491.574371 
	C542.710632,501.969299 553.711182,511.911072 564.693665,521.856201 
	C578.885315,534.707520 593.234924,547.384155 607.471802,560.185913 
	C620.712097,572.091553 633.892029,584.064331 647.102295,596.003479 
	C649.509949,598.179443 651.935791,600.335510 654.353210,602.500732 
	C654.927734,602.331665 655.502197,602.162659 656.076721,601.993591 
	C656.076721,538.829041 656.076721,475.664520 656.076355,411.500000 
z"/>
<path fill="#4CC4F8" opacity="1.000000" stroke="none" 
	d="
M594.818970,627.172485 
	C602.384827,634.133484 609.698120,640.847168 617.011353,647.560791 
	C616.937805,648.020874 616.864258,648.480957 616.790649,648.941040 
	C612.119812,649.328796 607.449341,650.048340 602.777954,650.054138 
	C539.794373,650.132324 476.810669,650.111877 413.826996,650.114197 
	C383.001648,650.115295 352.176300,650.119141 321.350952,650.107666 
	C314.339966,650.105042 314.297485,650.083679 313.391357,643.005676 
	C313.096252,640.700562 312.966125,638.359009 312.964172,636.033936 
	C312.936981,604.042236 312.938324,572.050476 312.950104,540.058777 
	C312.952972,532.225342 313.377228,531.806152 321.091187,531.805054 
	C374.410706,531.797363 427.730438,531.865845 481.049438,531.697327 
	C486.777039,531.679199 490.945007,533.330933 495.227264,537.261536 
	C518.403503,558.534790 541.919556,579.437683 565.304565,600.483704 
	C575.076172,609.277893 584.813416,618.110229 594.818970,627.172485 
z"/>
<path fill="#19C0BC" opacity="1.000000" stroke="none" 
	d="
M321.982788,235.000000 
	C321.984741,260.151703 321.997223,284.803375 321.982239,309.455078 
	C321.977814,316.756165 321.626923,317.109985 314.394501,317.112427 
	C286.578125,317.121796 258.761719,317.125671 230.945374,317.087250 
	C223.509445,317.076965 223.027191,316.555389 223.026566,309.100983 
	C223.019135,220.488190 223.019791,131.875397 223.031647,43.262611 
	C223.032715,35.284298 223.528030,34.819534 231.564133,34.817928 
	C258.547668,34.812542 285.531219,34.818474 312.514740,34.824654 
	C321.985382,34.826824 321.986633,34.832863 321.986511,44.115574 
	C321.985565,107.577049 321.984100,171.038528 321.982788,235.000000 
M246.500641,36.986271 
	C242.003067,36.987343 237.505173,36.955235 233.007980,36.997417 
	C226.566620,37.057831 225.926697,37.674759 225.925644,44.267605 
	C225.911560,132.219727 225.911621,220.171844 225.924927,308.123962 
	C225.925903,314.588715 226.397491,315.094147 232.638779,315.101349 
	C259.624023,315.132477 286.609406,315.131439 313.594666,315.101013 
	C319.522156,315.094360 320.080170,314.521942 320.081360,308.404144 
	C320.098755,220.118881 320.099121,131.833618 320.080933,43.548359 
	C320.079681,37.509071 319.561218,37.009304 313.464386,37.000370 
	C291.476410,36.968140 269.488373,36.986767 246.500641,36.986271 
z"/>
<path fill="#4CC4F8" opacity="1.000000" stroke="none" 
	d="
M471.067596,474.728210 
	C328.279083,475.059082 185.557938,475.060638 42.418816,475.065857 
	C42.000820,475.069519 42.014187,474.594269 41.972374,473.886719 
	C41.944065,443.692017 41.954536,414.204895 41.972565,384.717743 
	C41.979752,372.968018 41.987350,372.958252 53.770676,372.957794 
	C158.559021,372.953705 263.347382,372.957794 368.135712,372.944275 
	C377.540283,372.943054 378.865265,371.603088 378.868347,362.289276 
	C378.881287,323.306000 378.872314,284.322754 378.884094,245.339493 
	C378.886536,237.304260 379.205811,236.912811 387.415863,237.018173 
	C398.561188,237.161240 409.703796,237.664368 420.848236,237.687622 
	C436.315308,237.719894 451.783356,237.376282 467.249695,237.453537 
	C468.451172,237.459549 470.223297,239.306778 470.695190,240.659332 
	C471.321381,242.454178 470.968201,244.604431 470.968384,246.601959 
	C470.974457,318.904236 470.965210,391.206543 470.998718,463.508820 
	C471.000092,466.488129 471.392517,469.467285 471.602753,472.446503 
	C471.446838,473.097290 471.290894,473.748077 471.067596,474.728210 
z"/>
<path fill="#3FA3D0" opacity="1.000000" stroke="none" 
	d="
M471.826721,472.135986 
	C471.392517,469.467285 471.000092,466.488129 470.998718,463.508820 
	C470.965210,391.206543 470.974457,318.904236 470.968384,246.601959 
	C470.968201,244.604431 471.321381,242.454178 470.695190,240.659332 
	C470.223297,239.306778 468.451172,237.459549 467.249695,237.453537 
	C451.783356,237.376282 436.315308,237.719894 420.848236,237.687622 
	C409.703796,237.664368 398.561188,237.161240 387.415863,237.018173 
	C379.205811,236.912811 378.886536,237.304260 378.884094,245.339493 
	C378.872314,284.322754 378.881287,323.306000 378.868347,362.289276 
	C378.865265,371.603088 377.540283,372.943054 368.135712,372.944275 
	C263.347382,372.957794 158.559021,372.953705 53.770676,372.957794 
	C41.987350,372.958252 41.979752,372.968018 41.972565,384.717743 
	C41.954536,414.204895 41.944065,443.692017 41.908279,473.657806 
	C41.203014,472.414154 39.932209,470.694519 39.924400,468.969177 
	C39.786507,438.484741 39.771572,407.999542 39.811520,377.514618 
	C39.819427,371.482178 40.673595,370.887787 48.112328,370.887238 
	C126.407455,370.881592 204.702576,370.890717 282.997711,370.892487 
	C311.150635,370.893127 339.303558,370.895905 367.456482,370.874237 
	C375.327179,370.868164 375.950043,370.254120 375.954803,362.275452 
	C375.978363,322.794708 375.968231,283.313995 375.976868,243.833252 
	C375.978699,235.375305 376.286499,235.062729 384.646545,235.059921 
	C410.633850,235.051208 436.621124,235.054474 462.608429,235.053116 
	C472.440796,235.052612 472.843140,235.425629 472.846375,245.552216 
	C472.861420,292.862457 472.854462,340.172668 472.853394,387.482910 
	C472.852814,413.137054 472.869690,438.791290 472.810699,464.445282 
	C472.805054,466.905914 472.315582,469.365417 471.826721,472.135986 
z"/>
<path fill="#4CC4F8" opacity="1.000000" stroke="none" 
	d="
M122.000000,36.788658 
	C135.329102,36.791416 148.158356,36.761269 160.987259,36.813457 
	C166.679733,36.836613 167.778076,38.037731 167.785187,43.473473 
	C167.833557,80.448830 167.908585,117.424149 167.961533,154.399490 
	C167.973907,163.041885 167.950058,163.045044 159.458633,163.045685 
	C122.970634,163.048462 86.482635,163.052307 49.994640,163.048401 
	C41.840771,163.047531 41.822201,163.033844 41.819729,155.140198 
	C41.812992,133.647278 41.747509,112.153984 41.848759,90.661514 
	C41.947433,69.714905 50.035328,52.744968 69.091415,43.168522 
	C76.842041,39.273521 86.227303,38.030102 95.034477,37.008728 
	C103.747620,35.998253 112.669609,36.788746 122.000000,36.788658 
z"/>
<path fill="#18E4D9" opacity="1.000000" stroke="none" 
	d="
M656.076538,412.000000 
	C656.076721,475.664520 656.076721,538.829041 656.076721,601.993591 
	C655.502197,602.162659 654.927734,602.331665 654.353210,602.500732 
	C651.935791,600.335510 649.509949,598.179443 647.102295,596.003479 
	C633.892029,584.064331 620.712097,572.091553 607.471802,560.185913 
	C593.234924,547.384155 578.885315,534.707520 564.693665,521.856201 
	C553.711182,511.911072 542.710632,501.969299 532.163208,491.574371 
	C530.043945,489.485809 529.037598,485.365967 529.025146,482.176819 
	C528.830322,432.356171 528.882141,382.534607 528.879517,332.713226 
	C528.877991,303.720184 528.868713,274.727142 528.889587,245.734085 
	C528.895325,237.797119 529.645874,237.523575 537.517456,237.641525 
	C556.008606,237.918518 574.505981,237.847931 593.000549,237.805573 
	C611.491699,237.763229 629.982605,237.598145 648.473389,237.457275 
	C654.804688,237.409042 656.064392,238.656296 656.066162,245.539917 
	C656.080505,300.859955 656.075439,356.179962 656.076538,412.000000 
z"/>
<path fill="#18E4D9" opacity="1.000000" stroke="none" 
	d="
M247.000488,36.986229 
	C269.488373,36.986767 291.476410,36.968140 313.464386,37.000370 
	C319.561218,37.009304 320.079681,37.509071 320.080933,43.548359 
	C320.099121,131.833618 320.098755,220.118881 320.081360,308.404144 
	C320.080170,314.521942 319.522156,315.094360 313.594666,315.101013 
	C286.609406,315.131439 259.624023,315.132477 232.638779,315.101349 
	C226.397491,315.094147 225.925903,314.588715 225.924927,308.123962 
	C225.911621,220.171844 225.911560,132.219727 225.925644,44.267605 
	C225.926697,37.674759 226.566620,37.057831 233.007980,36.997417 
	C237.505173,36.955235 242.003067,36.987343 247.000488,36.986229 
z"/>
</svg>